<?xml version="1.0" encoding="UTF-8"?><svg id="a" xmlns="http://www.w3.org/2000/svg" width="85.19" height="85.67" viewBox="0 0 85.19 85.67"><g><path d="M35.12,47.33l-.64,3.72h-4.2l4-18.87h5.26l3.44,18.87h-4.2l-.62-3.72h-3.05Zm2.72-3.33l-.48-3.58c-.14-1.06-.39-3.11-.56-4.28h-.06c-.2,1.18-.48,3.28-.64,4.28l-.56,3.58h2.3Z" style="fill:#fff;"/><path d="M48.22,36.86h-.06l-3.11,1.51-.7-3.39,4.31-2.13h3.84v18.2h-4.28v-14.2Z" style="fill:#fff;"/></g><path d="M85.19,42.83l-10.34-7.34c-.78-3.31-2.08-6.42-3.79-9.25l2.3-13.55-13.59,2.31c-2.57-1.52-5.36-2.71-8.32-3.48L43.27,0l-8.18,11.53c-2.87,.75-5.58,1.88-8.08,3.34l-14.54-2.47,2.5,14.71c-1.27,2.26-2.29,4.68-2.99,7.23L0,42.83l11.92,8.46c.74,2.78,1.85,5.42,3.26,7.85l-2.4,14.13,14.06-2.39c2.59,1.53,5.41,2.72,8.4,3.48l8.02,11.3,8.02-11.3c3.22-.82,6.24-2.14,9-3.85l12.43,2.11-2.09-12.29c1.97-3.09,3.43-6.53,4.27-10.2l10.29-7.3Zm-41.92,28.54c-15.68,0-28.44-12.76-28.44-28.44S27.58,14.48,43.27,14.48s28.44,12.76,28.44,28.44-12.76,28.44-28.44,28.44Z" style="fill:#fff;"/></svg>