<?xml version="1.0" encoding="UTF-8"?><svg id="a" xmlns="http://www.w3.org/2000/svg" width="64.89" height="64.89" viewBox="0 0 64.89 64.89"><path d="M32.44,64.89C14.55,64.89,0,50.33,0,32.44S14.55,0,32.44,0s32.44,14.55,32.44,32.44-14.55,32.44-32.44,32.44Zm0-60.89C16.76,4,4,16.76,4,32.44s12.76,28.44,28.44,28.44,28.44-12.76,28.44-28.44S48.13,4,32.44,4Z" style="fill:#fff;"/><g><path d="M24.3,36.85l-.64,3.72h-4.2l4-18.87h5.26l3.44,18.87h-4.2l-.62-3.72h-3.05Zm2.72-3.33l-.48-3.58c-.14-1.06-.39-3.11-.56-4.28h-.06c-.2,1.18-.48,3.28-.64,4.28l-.56,3.58h2.3Z" style="fill:#fff;"/><path d="M33.09,40.57v-2.94l1.93-2.41c2.44-3,4.09-5.1,4.09-7.34,0-1.23-.78-2.16-2.21-2.16-1.06,0-2.02,.42-2.77,.87l-.7-3.36c.92-.56,2.6-1.09,4.26-1.09,4.4,0,5.68,2.86,5.68,5.4,0,3.42-2.1,5.88-4.12,8.04l-1.04,1.12v.06h5.35v3.81h-10.47Z" style="fill:#fff;"/></g></svg>