<?xml version="1.0" encoding="UTF-8"?><svg id="a" xmlns="http://www.w3.org/2000/svg" width="85.19" height="85.67" viewBox="0 0 85.19 85.67"><path d="M74.89,50.13l10.29-7.3-10.34-7.34c-2.75-11.68-11.82-20.95-23.4-23.97L43.27,0l-8.18,11.53c-11.19,2.92-20.04,11.67-23.1,22.8L0,42.83l11.92,8.46c3.02,11.29,11.99,20.18,23.33,23.08l8.02,11.3,8.02-11.3c11.73-2.99,20.91-12.39,23.61-24.23Zm-31.63,21.24c-15.68,0-28.44-12.76-28.44-28.44S27.58,14.48,43.27,14.48s28.44,12.76,28.44,28.44-12.76,28.44-28.44,28.44Z" style="fill:#fff;"/><g><path d="M35.12,47.33l-.64,3.72h-4.2l4-18.87h5.26l3.44,18.87h-4.2l-.62-3.72h-3.05Zm2.72-3.33l-.48-3.58c-.14-1.06-.39-3.11-.56-4.28h-.06c-.2,1.18-.48,3.28-.64,4.28l-.56,3.58h2.3Z" style="fill:#fff;"/><path d="M44.5,47.08c.78,.45,1.85,.7,2.74,.7,1.74,0,2.6-1.01,2.6-2.21,0-1.88-1.6-2.49-3.3-2.52h-.5v-3.14h.34c1.37-.03,2.97-.42,2.97-1.96,0-1.09-.76-1.79-1.99-1.79-.78,0-1.6,.22-2.3,.64l-.5-3.25c.78-.48,2.38-.92,3.95-.92,3.47,0,5.15,2.16,5.15,4.48,0,1.82-1.04,3.28-2.58,4v.06c1.82,.67,3.08,2.3,3.08,4.56,0,2.72-2.21,5.54-6.47,5.54-1.6,0-2.91-.36-3.72-.78l.53-3.42Z" style="fill:#fff;"/></g></svg>