<?xml version="1.0" encoding="UTF-8"?><svg id="a" xmlns="http://www.w3.org/2000/svg" width="85.19" height="85.67" viewBox="0 0 85.19 85.67"><path d="M74.89,50.13l10.29-7.3-10.34-7.34c-2.75-11.68-11.82-20.95-23.4-23.97L43.27,0l-8.18,11.53c-11.19,2.92-20.04,11.67-23.1,22.8L0,42.83l11.92,8.46c3.02,11.3,11.99,20.18,23.33,23.08l8.02,11.3,8.02-11.3c11.73-2.99,20.91-12.39,23.61-24.23Zm-31.63,21.24c-15.68,0-28.44-12.76-28.44-28.44S27.58,14.48,43.27,14.48s28.44,12.76,28.44,28.44-12.76,28.44-28.44,28.44Z" style="fill:#fff;"/><g><path d="M35.12,47.33l-.64,3.72h-4.2l4-18.87h5.26l3.44,18.87h-4.2l-.62-3.72h-3.05Zm2.72-3.33l-.48-3.58c-.14-1.06-.39-3.11-.56-4.28h-.06c-.2,1.18-.48,3.28-.64,4.28l-.56,3.58h2.3Z" style="fill:#fff;"/><path d="M49.87,51.05v-4.06h-6.33v-2.97l5.96-11.17h4.17v10.7h1.74v3.44h-1.74v4.06h-3.81Zm0-7.5v-3.11c0-.84,.11-1.88,.2-2.74h-.08c-.34,.81-.7,1.62-1.18,2.58l-1.68,3.22v.06h2.74Z" style="fill:#fff;"/></g></svg>