<?xml version="1.0" encoding="UTF-8"?><svg id="a" xmlns="http://www.w3.org/2000/svg" width="64.89" height="64.89" viewBox="0 0 64.89 64.89"><path d="M32.44,64.89C14.55,64.89,0,50.33,0,32.44S14.55,0,32.44,0s32.44,14.55,32.44,32.44-14.55,32.44-32.44,32.44Zm0-60.89c-15.68,0-28.44,12.76-28.44,28.44s12.76,28.44,28.44,28.44,28.44-12.76,28.44-28.44S48.13,4,32.44,4Z" style="fill:#fff;"/><g><path d="M20.99,22.74c1.2-.25,2.86-.36,4.62-.36s3.61,.17,5.04,1.34c1.09,.9,1.51,2.21,1.51,3.53,0,1.57-.78,3.22-2.66,4.09v.11c2.18,.64,3.28,2.46,3.28,4.37,0,1.57-.5,2.77-1.4,3.7-1.15,1.23-3.14,1.99-6.72,1.99-1.4,0-2.72-.08-3.67-.22V22.74Zm4.31,7.36h.7c1.15,0,1.93-1.01,1.93-2.35,0-1.23-.59-2.18-1.74-2.18-.36,0-.67,.03-.9,.11v4.42Zm0,8.04c.22,.06,.45,.06,.7,.06,1.18,0,2.3-.76,2.3-2.44s-1.06-2.46-2.27-2.46h-.73v4.84Z" style="fill:#fff;"/><path d="M38.63,27.13h-.06l-3.11,1.51-.7-3.39,4.31-2.13h3.84v18.2h-4.28v-14.2Z" style="fill:#fff;"/></g></svg>