<?xml version="1.0" encoding="UTF-8"?><svg id="a" xmlns="http://www.w3.org/2000/svg" width="85.19" height="85.67" viewBox="0 0 85.19 85.67"><path d="M74.89,50.14l10.29-7.3-10.34-7.34c-2.75-11.68-11.82-20.95-23.4-23.97L43.27,0l-8.18,11.53c-11.19,2.92-20.04,11.67-23.1,22.8L0,42.83l11.92,8.46c3.02,11.29,11.99,20.18,23.33,23.08l8.02,11.3,8.02-11.3c11.73-2.99,20.91-12.39,23.61-24.23Zm-31.63,21.24c-15.68,0-28.44-12.76-28.44-28.44S27.58,14.48,43.27,14.48s28.44,12.76,28.44,28.44-12.76,28.44-28.44,28.44Z" style="fill:#fff;"/><g><path d="M42.19,52.8c-.5,.22-1.57,.42-2.88,.42-5.32,0-7.48-4.4-7.48-9.3,0-6.97,4.06-9.91,8.01-9.91,1.37,0,2.3,.28,2.66,.5l-.67,3.64c-.42-.2-.9-.36-1.62-.36-2.13,0-3.78,1.74-3.78,5.94,0,3.95,1.54,5.66,3.72,5.66,.53,0,1.23-.11,1.68-.22l.36,3.64Z" style="fill:#fff;"/><path d="M47.43,38.86h-.06l-3.11,1.51-.7-3.39,4.31-2.13h3.84v18.2h-4.28v-14.2Z" style="fill:#fff;"/></g></svg>