<?xml version="1.0" encoding="UTF-8"?><svg id="a" xmlns="http://www.w3.org/2000/svg" width="64.89" height="64.89" viewBox="0 0 64.89 64.89"><path d="M32.44,64.89C14.55,64.89,0,50.33,0,32.44S14.55,0,32.44,0s32.44,14.55,32.44,32.44-14.55,32.44-32.44,32.44Zm0-60.89C16.76,4,4,16.76,4,32.44s12.76,28.44,28.44,28.44,28.44-12.76,28.44-28.44S48.13,4,32.44,4Z" style="fill:#fff;"/><g><path d="M21.99,23.4c.95-.2,2.46-.36,4.09-.36,2.55,0,4.31,.59,5.6,1.79,1.68,1.54,2.41,4.06,2.41,7.59s-.95,6.47-2.77,8.01c-1.32,1.15-3.19,1.74-6.02,1.74-1.29,0-2.55-.14-3.3-.22V23.4Zm4.31,15.18c.14,.06,.39,.06,.59,.06,1.51,0,2.72-1.74,2.72-6.41,0-3.5-.81-5.74-2.69-5.74-.22,0-.42,0-.62,.08v12.01Z" style="fill:#fff;"/><path d="M39.6,27.8h-.06l-3.11,1.51-.7-3.39,4.31-2.13h3.84v18.2h-4.28v-14.2Z" style="fill:#fff;"/></g></svg>