<?xml version="1.0" encoding="UTF-8"?><svg id="a" xmlns="http://www.w3.org/2000/svg" width="15.56" height="43.11" viewBox="0 0 15.56 43.11"><rect width="15.56" height="43.11" style="fill:#fff;"/><g><path d="M2.68,17.27H.58v-2.59H7.6v2.59h-2.12v9.54H2.68v-9.54Z"/><path d="M10.93,17.68h-.04l-2,.97-.45-2.18,2.77-1.37h2.47v11.7h-2.75v-9.13Z"/></g><path d="M11.65,10.74c.46,1.05,.02,1.43-.96,.85l-1.12-.66c-.99-.58-2.6-.58-3.59,0l-1.12,.66c-.99,.58-1.42,.2-.96-.85L6.95,3.76c.46-1.05,1.21-1.05,1.66,0l3.04,6.98Z"/><path d="M3.91,32.32c-.46-1.05-.02-1.43,.96-.85l1.12,.66c.99,.58,2.6,.58,3.59,0l1.12-.66c.99-.58,1.42-.2,.96,.85l-3.04,6.98c-.46,1.05-1.21,1.05-1.66,0l-3.04-6.98Z"/></svg>