<?xml version="1.0" encoding="UTF-8"?><svg id="a" xmlns="http://www.w3.org/2000/svg" width="15.56" height="43.11" viewBox="0 0 15.56 43.11"><rect width="15.56" height="43.11" style="fill:#fff;"/><g><path d="M6.86,21.66h-2.65v2.74h2.97v2.41H1.42V14.68H6.99v2.41h-2.77v2.27h2.65v2.3Z"/><path d="M8.19,26.81v-1.89l1.24-1.55c1.57-1.93,2.63-3.28,2.63-4.72,0-.79-.5-1.39-1.42-1.39-.68,0-1.3,.27-1.78,.56l-.45-2.16c.59-.36,1.67-.7,2.74-.7,2.83,0,3.66,1.84,3.66,3.48,0,2.2-1.35,3.78-2.65,5.17l-.67,.72v.04h3.44v2.45h-6.73Z"/></g><path d="M11.65,10.74c.46,1.05,.02,1.43-.96,.85l-1.12-.66c-.99-.58-2.6-.58-3.59,0l-1.12,.66c-.99,.58-1.42,.2-.96-.85L6.95,3.76c.46-1.05,1.21-1.05,1.66,0l3.04,6.98Z"/><path d="M3.91,32.32c-.46-1.05-.02-1.43,.96-.85l1.12,.66c.99,.58,2.6,.58,3.59,0l1.12-.66c.99-.58,1.42-.2,.96,.85l-3.04,6.98c-.46,1.05-1.21,1.05-1.66,0l-3.04-6.98Z"/></svg>