<?xml version="1.0" encoding="UTF-8"?><svg id="a" xmlns="http://www.w3.org/2000/svg" width="30.22" height="21.33" viewBox="0 0 30.22 21.33"><rect width="30.22" height="21.33" rx="3" ry="3" style="fill:#fff;"/><g><path d="M8.78,4.81h5.56v2.41h-2.77v2.63h2.61v2.3h-2.61v4.79h-2.79V4.81Z"/><path d="M15.54,16.95v-1.89l1.24-1.55c1.57-1.93,2.63-3.28,2.63-4.72,0-.79-.5-1.39-1.42-1.39-.68,0-1.3,.27-1.78,.56l-.45-2.16c.59-.36,1.67-.7,2.74-.7,2.83,0,3.66,1.84,3.66,3.48,0,2.2-1.35,3.78-2.65,5.17l-.67,.72v.04h3.44v2.45h-6.73Z"/></g></svg>