<?xml version="1.0" encoding="UTF-8"?><svg id="a" xmlns="http://www.w3.org/2000/svg" width="30.22" height="21.33" viewBox="0 0 30.22 21.33"><rect x="0" width="30.22" height="21.33" rx="3" ry="3" style="fill:#fff;"/><g><path d="M8.78,4.81h5.56v2.41h-2.77v2.63h2.61v2.3h-2.61v4.79h-2.79V4.81Z"/><path d="M15.92,14.39c.5,.29,1.19,.45,1.76,.45,1.12,0,1.67-.65,1.67-1.42,0-1.21-1.03-1.6-2.12-1.62h-.32v-2.02h.22c.88-.02,1.91-.27,1.91-1.26,0-.7-.49-1.15-1.28-1.15-.5,0-1.03,.14-1.48,.41l-.32-2.09c.5-.31,1.53-.59,2.54-.59,2.23,0,3.31,1.39,3.31,2.88,0,1.17-.67,2.11-1.66,2.57v.04c1.17,.43,1.98,1.48,1.98,2.94,0,1.75-1.42,3.56-4.16,3.56-1.03,0-1.87-.23-2.39-.5l.34-2.2Z"/></g></svg>