<?xml version="1.0" encoding="UTF-8"?><svg id="a" xmlns="http://www.w3.org/2000/svg" width="11.68" height="34.14" viewBox="0 0 11.68 34.14"><path d="M11.42,11.19c.66,1.51,.04,2.06-1.39,1.23l-1.61-.95c-1.42-.84-3.75-.84-5.17,0l-1.61,.95c-1.42,.84-2.04,.29-1.39-1.23L4.64,1.13c.66-1.51,1.74-1.51,2.4,0l4.38,10.06Z" style="fill:#fff;"/><path d="M.26,22.95c-.66-1.51-.04-2.06,1.39-1.23l1.61,.95c1.42,.84,3.75,.84,5.17,0l1.61-.95c1.42-.84,2.04-.29,1.39,1.23l-4.38,10.06c-.66,1.51-1.74,1.51-2.4,0L.26,22.95Z" style="fill:#fff;"/></svg>