<?xml version="1.0" encoding="UTF-8"?><svg id="a" xmlns="http://www.w3.org/2000/svg" width="85.19" height="85.67" viewBox="0 0 85.19 85.67"><path d="M74.89,50.13l10.29-7.3-10.34-7.34c-2.75-11.68-11.82-20.95-23.4-23.97L43.27,0l-8.18,11.53c-11.19,2.92-20.04,11.67-23.1,22.8L0,42.83l11.92,8.46c3.02,11.29,11.99,20.18,23.33,23.08l8.02,11.3,8.02-11.3c11.73-2.99,20.91-12.39,23.61-24.23Zm-31.63,21.24c-15.68,0-28.44-12.76-28.44-28.44S27.58,14.48,43.27,14.48s28.44,12.76,28.44,28.44-12.76,28.44-28.44,28.44Z" style="fill:#fff;"/><path d="M54.09,32.18l-.9,4.31c-.28,1.32-.5,2.66-.67,3.98h-.06c-.22-1.34-.5-2.72-.81-3.89l-1.12-4.4h-3.27l.08-.22h-2.72l-5.99,17.8-3.16-8.12,3.47-9.46h-4.31l-.7,3.08c-.22,1.06-.45,2.02-.7,3.08h-.06c-.22-1.01-.48-2.02-.76-3.05l-.84-3.11h-4.51l3.22,9.21-3.36,9.66h4.26l.73-2.94c.25-1.12,.53-2.27,.78-3.44h.06c.28,1.18,.59,2.24,.95,3.36l.95,3.02h3.54l-.38,1.12h2.72l6.06-18.01,3.46,10v6.89h4.34v-7.06l4.17-11.82h-4.48Z" style="fill:#fff;"/></svg>