<?xml version="1.0" encoding="UTF-8"?><svg id="a" xmlns="http://www.w3.org/2000/svg" width="78.78" height="79.56" viewBox="0 0 78.78 79.56"><path d="M33.81,45.87l6.16-13.34v-.09h-5.56v-4.04h10.77v3.47l-5.8,12.56v.09h5.77v4.04h-11.33v-2.69Z" style="fill:#fff;"/><path d="M78.78,50.28l-6.98-9.84c0-.24,.02-.47,.02-.71,0-13.84-8.72-25.68-20.94-30.33V0l-10.3,7.31c-.4-.01-.8-.03-1.2-.03-14.24,0-26.35,9.22-30.71,22H0l6.94,9.79c0,.22-.02,.44-.02,.66,0,14.22,9.19,26.32,21.94,30.69v9.14l10.42-7.39s.05,0,.08,0c14.19,0,26.28-9.17,30.67-21.89h8.74Zm-39.41,17.89c-.19,0-.38-.01-.57-.01l-9.92-7.04v5.04c-10.46-4.17-17.88-14.37-17.94-26.28l7.51-10.59h-5.52c4.17-10.53,14.45-18,26.45-18,.49,0,.97,.01,1.45,.04l10.05,7.13v-4.73c9.97,4.43,16.94,14.41,16.94,26.01,0,0,0,0,0,.01l-7.48,10.55h5.44c-4.2,10.47-14.45,17.89-26.41,17.89Z" style="fill:#fff;"/></svg>