<?xml version="1.0" encoding="UTF-8"?><svg id="a" xmlns="http://www.w3.org/2000/svg" width="78.78" height="79.56" viewBox="0 0 78.78 79.56"><path d="M78.78,29.28h-8.66c-4.36-12.78-16.47-22-30.71-22-.4,0-.8,.02-1.2,.03L27.91,0V9.39C15.68,14.04,6.96,25.88,6.96,39.72c0,.24,.01,.48,.02,.71L0,50.28H8.74c4.39,12.72,16.48,21.89,30.67,21.89,.03,0,.05,0,.08,0l10.42,7.39v-9.14c12.75-4.37,21.94-16.48,21.94-30.69,0-.22-.01-.44-.02-.66l6.94-9.79Zm-28.87,36.87v-5.04l-9.93,7.04c-.19,0-.38,.01-.57,.01-11.96,0-22.2-7.42-26.41-17.89h5.44l-7.48-10.55s0,0,0,0c0-11.59,6.97-21.58,16.94-26.01v4.73l10.05-7.13c.48-.02,.96-.04,1.45-.04,12,0,22.28,7.47,26.45,18h-5.52l7.51,10.59c-.06,11.91-7.48,22.11-17.94,26.28Z" style="fill:#fff;"/><path d="M33.81,45.87l6.16-13.34v-.09h-5.56v-4.04h10.77v3.47l-5.8,12.56v.09h5.77v4.04h-11.33v-2.69Z" style="fill:#fff;"/></svg>